<?xml version="1.0" encoding="utf-8"?>
<!-- Generator: Adobe Illustrator 16.0.0, SVG Export Plug-In . SVG Version: 6.00 Build 0)  -->
<!DOCTYPE svg PUBLIC "-//W3C//DTD SVG 1.1//EN" "http://www.w3.org/Graphics/SVG/1.1/DTD/svg11.dtd">
<svg version="1.1" id="Livello_1" xmlns="http://www.w3.org/2000/svg" xmlns:xlink="http://www.w3.org/1999/xlink" x="0px" y="0px"
	 width="16px" height="16px" viewBox="0 0 16 16" enable-background="new 0 0 16 16" xml:space="preserve">
<g>
	<path fill="#FFFFFF" stroke="#000000" stroke-miterlimit="10" d="M13.303,9.094c-0.184,3.276-2.037,5.998-4.521,6.893H8.765
		c-2.971-0.372-5.341-3.259-5.65-6.893H13.303z"/>
	<path fill="#FFFFFF" stroke="#000000" stroke-miterlimit="10" d="M8.415,9.047c-0.01,0.061-0.016,0.117-0.02,0.174
		c0-0.094-0.016-0.188-0.042-0.277C8.208,8.472,7.748,8.121,7.112,7.935c0.005-0.003,0.015-0.003,0.021-0.003
		C7.779,8.117,8.25,8.467,8.396,8.944C8.405,8.977,8.415,9.01,8.415,9.047z"/>
	<path fill="#FFFFFF" stroke="#000000" stroke-miterlimit="10" d="M8.415,9.047c-0.01,0.061-0.016,0.117-0.02,0.174
		c0-0.094-0.016-0.188-0.042-0.277C8.208,8.472,7.748,8.121,7.112,7.935c0.005-0.003,0.015-0.003,0.021-0.003
		C7.779,8.117,8.25,8.467,8.396,8.944C8.405,8.977,8.415,9.01,8.415,9.047z"/>
	<path fill="#FFFFFF" stroke="#000000" stroke-miterlimit="10" d="M8.591,9.198C8.349,9.201,3.371,9.659,3.236,9.826
		c-0.145-0.313-0.265-0.641-0.352-0.98c-0.14-0.52-0.212-1.062-0.212-1.627c0-3.304,2.55-6.671,5.645-6.671
		c3.099,0,5.581,3.367,5.581,6.671c0,0.528-0.062,1.038-0.186,1.528c-0.108,0.439-0.264,0.859-0.463,1.251
		C12.635,9.074,10.1,9.463,8.408,9.212"/>
	<path fill="#FFFFFF" stroke="#000000" stroke-miterlimit="10" d="M9.497,7.237c0.012,0,0.021,0.005,0.031,0.005
		c1.696,0.257,3.073,0.967,3.689,1.888c0.233,0.347,0.356,0.715,0.356,1.107c0,0.197-0.029,0.389-0.093,0.575
		c-0.464,0.132-1.013,0.174-1.614,0.113h-0.02c-0.072-0.006-0.15-0.016-0.224-0.029c-0.144-0.021-0.289-0.047-0.438-0.078
		c-0.059-0.015-0.117-0.019-0.178-0.034c-1.46-0.354-2.521-1.205-2.676-2.042c-0.156,0.836-1.216,1.682-2.671,2.042
		c-0.124,0.034-0.248,0.057-0.373,0.081c-0.124,0.023-0.248,0.042-0.373,0.055c-0.078,0.011-0.161,0.014-0.239,0.019H4.663
		c-0.724,0.051-1.386-0.05-1.883-0.28c-0.037-0.136-0.053-0.276-0.053-0.421c0-0.456,0.171-0.893,0.487-1.28
		c0.13-0.164,0.29-0.322,0.466-0.473c0.777-0.644,1.961-1.112,3.343-1.28c0.954-0.063,2.192-0.033,2.547,0.04"/>
	<path d="M7.585,4.389l-0.37,0.091C7.049,4.069,6.632,3.818,6.251,3.911c-0.381,0.093-0.6,0.5-0.514,0.931L5.356,4.935
		C5.229,4.287,5.552,3.676,6.131,3.534C6.711,3.391,7.332,3.773,7.585,4.389z"/>
	<g>
		<ellipse cx="6.51" cy="5.527" rx="0.701" ry="0.644"/>
		<ellipse fill="#F4EDEF" cx="6.376" cy="5.293" rx="0.146" ry="0.108"/>
	</g>
	<path d="M9.188,4.466l0.37,0.091c0.165-0.41,0.582-0.662,0.964-0.568c0.379,0.093,0.601,0.501,0.513,0.931l0.381,0.094
		c0.128-0.648-0.193-1.26-0.775-1.401C10.063,3.469,9.44,3.85,9.188,4.466z"/>
	<g>
		<ellipse cx="10.008" cy="5.544" rx="0.701" ry="0.644"/>
		<ellipse fill="#F4EDEF" cx="9.873" cy="5.311" rx="0.146" ry="0.107"/>
	</g>
</g>
</svg>
