<?xml version="1.0" encoding="utf-8"?>
<!-- Generator: Adobe Illustrator 16.0.0, SVG Export Plug-In . SVG Version: 6.00 Build 0)  -->
<!DOCTYPE svg PUBLIC "-//W3C//DTD SVG 1.1//EN" "http://www.w3.org/Graphics/SVG/1.1/DTD/svg11.dtd">
<svg version="1.1" id="Livello_1" xmlns="http://www.w3.org/2000/svg" xmlns:xlink="http://www.w3.org/1999/xlink" x="0px" y="0px"
	 width="48px" height="48px" viewBox="0 0 48 48" enable-background="new 0 0 48 48" xml:space="preserve">
<path fill="#FFFFFF" stroke="#000000" stroke-width="0.5" stroke-miterlimit="10" d="M35.355,25.627
	c-0.359,7.014-3.935,12.838-8.737,14.753h-0.032c-5.74-0.795-10.32-6.972-10.916-14.753H35.355z"/>
<path fill="#FFFFFF" stroke="#000000" stroke-width="0.5" stroke-miterlimit="10" d="M25.91,25.53c-0.021,0.13-0.03,0.25-0.04,0.37
	c0-0.2-0.03-0.4-0.08-0.591c-0.28-1.01-1.17-1.76-2.4-2.16c0.01-0.01,0.03-0.01,0.04-0.01c1.25,0.4,2.16,1.15,2.44,2.169
	C25.89,25.38,25.91,25.45,25.91,25.53z"/>
<path fill="#FFFFFF" stroke="#000000" stroke-width="0.5" stroke-miterlimit="10" d="M25.91,25.53c-0.021,0.13-0.03,0.25-0.04,0.37
	c0-0.2-0.03-0.4-0.08-0.591c-0.28-1.01-1.17-1.76-2.4-2.16c0.01-0.01,0.03-0.01,0.04-0.01c1.25,0.4,2.16,1.15,2.44,2.169
	C25.89,25.38,25.91,25.45,25.91,25.53z"/>
<path fill="#FFFFFF" stroke="#000000" stroke-width="0.5" stroke-miterlimit="10" d="M26.25,25.854
	c-0.468,0.005-10.088,0.983-10.348,1.343c-0.28-0.67-0.51-1.369-0.68-2.1c-0.27-1.11-0.41-2.271-0.41-3.48
	c0-7.07,4.926-14.273,10.906-14.273c5.99,0,10.783,7.204,10.783,14.273c0,1.13-0.119,2.22-0.359,3.27
	c-0.211,0.941-0.51,1.839-0.891,2.679c-1.189-1.979-6.088-1.146-9.357-1.685"/>
<path fill="#FFFFFF" stroke="#000000" stroke-width="0.5" stroke-miterlimit="10" d="M28,21.658c0.021,0,0.04,0.01,0.061,0.01
	c3.279,0.551,5.939,2.07,7.13,4.04c0.449,0.74,0.689,1.53,0.689,2.37c0,0.42-0.06,0.83-0.18,1.23c-0.9,0.281-1.96,0.371-3.12,0.24
	h-0.04c-0.14-0.01-0.29-0.029-0.43-0.061c-0.277-0.045-0.561-0.102-0.846-0.17c-0.115-0.027-0.229-0.037-0.345-0.07
	c-2.82-0.76-4.87-2.578-5.17-4.369c-0.3,1.791-2.35,3.6-5.16,4.369c-0.24,0.07-0.48,0.121-0.72,0.172
	c-0.24,0.049-0.48,0.09-0.72,0.119c-0.15,0.02-0.31,0.029-0.46,0.039h-0.03c-1.4,0.111-2.68-0.109-3.64-0.6
	c-0.07-0.289-0.1-0.59-0.1-0.9c0-0.979,0.33-1.909,0.94-2.739c0.25-0.351,0.56-0.69,0.9-1.011c1.5-1.38,3.79-2.38,6.46-2.74
	c1.842-0.135,4.233-0.072,4.92,0.084"/>
<path stroke="#F9F9FA" stroke-width="0.5" stroke-miterlimit="10" d="M24.305,15.562l-0.714,0.194
	c-0.32-0.877-1.126-1.415-1.863-1.215c-0.735,0.2-1.16,1.071-0.993,1.99l-0.737,0.2c-0.246-1.384,0.378-2.693,1.499-2.998
	C22.618,13.429,23.817,14.244,24.305,15.562z"/>
<g>
	<ellipse stroke="#FFFFFF" stroke-width="0.5" stroke-miterlimit="10" cx="22.229" cy="18" rx="1.354" ry="1.375"/>
	<ellipse stroke="#FFFFFF" stroke-width="0.5" stroke-miterlimit="10" cx="21.969" cy="17.5" rx="0.281" ry="0.229"/>
</g>
<path stroke="#F9F9FA" stroke-width="0.5" stroke-miterlimit="10" d="M27.403,15.729l0.714,0.194
	c0.319-0.877,1.126-1.415,1.862-1.215s1.16,1.071,0.993,1.99l0.737,0.2c0.245-1.384-0.379-2.693-1.5-2.998
	C29.091,13.596,27.891,14.41,27.403,15.729z"/>
<g>
	<ellipse stroke="#FFFFFF" stroke-width="0.5" stroke-miterlimit="10" cx="29.313" cy="18" rx="1.354" ry="1.375"/>
	<ellipse stroke="#FFFFFF" stroke-width="0.5" stroke-miterlimit="10" cx="29.052" cy="17.5" rx="0.281" ry="0.229"/>
</g>
</svg>
