<?xml version="1.0" encoding="utf-8"?>
<!-- Generator: Adobe Illustrator 16.0.0, SVG Export Plug-In . SVG Version: 6.00 Build 0)  -->
<!DOCTYPE svg PUBLIC "-//W3C//DTD SVG 1.1//EN" "http://www.w3.org/Graphics/SVG/1.1/DTD/svg11.dtd">
<svg version="1.1" id="Livello_1" xmlns="http://www.w3.org/2000/svg" xmlns:xlink="http://www.w3.org/1999/xlink" x="0px" y="0px"
	 width="16px" height="16px" viewBox="0 0 16 16" enable-background="new 0 0 16 16" xml:space="preserve">
<g>
	<path fill="#050606" stroke="#000000" stroke-width="0.5" stroke-miterlimit="10" d="M14.183,4.167
		c0.8-0.152,1.355-0.49,1.234-0.756C15.354,3.264,15.1,3.168,14.748,3.14c0.044-0.047,0.084-0.095,0.117-0.143
		c0.591-0.794,0.571-1.603-0.049-1.797c-0.614-0.195-1.59,0.29-2.181,1.089c-0.25,0.333-0.391,0.67-0.425,0.96
		c-1.235-1.137-2.908-1.827-4.744-1.827c-3.811,0-6.9,2.978-6.9,6.659c0,3.676,3.089,6.659,6.9,6.659s6.9-2.982,6.9-6.659
		c0-1.441-0.473-2.773-1.278-3.862C13.391,4.262,13.776,4.248,14.183,4.167z M2.495,7.273c0.029-1.346,0.639-2.559,1.601-3.405
		h6.685c0.962,0.847,1.572,2.059,1.601,3.405H2.495z"/>
	<path fill="#FFFFFF" stroke="#000000" stroke-width="0.5" stroke-miterlimit="10" d="M12.381,7.273H2.495
		c0.029-1.346,0.639-2.559,1.601-3.405h6.685C11.742,4.714,12.353,5.927,12.381,7.273z"/>
	<path fill="none" stroke="#000000" stroke-width="0.5" stroke-miterlimit="10" d="M12.381,7.273H2.495
		c0.029-1.346,0.639-2.559,1.601-3.405h6.685C11.742,4.714,12.353,5.927,12.381,7.273z"/>
	<line fill="none" stroke="#000000" stroke-width="0.5" stroke-miterlimit="10" x1="12.489" y1="7.273" x2="12.381" y2="7.273"/>
	<line fill="none" stroke="#000000" stroke-width="0.5" stroke-miterlimit="10" x1="2.495" y1="7.273" x2="2.412" y2="7.273"/>
	<line fill="none" stroke="#000000" stroke-width="0.5" stroke-miterlimit="10" x1="10.811" y1="3.868" x2="10.78" y2="3.868"/>
	<line fill="none" stroke="#000000" stroke-width="0.5" stroke-miterlimit="10" x1="4.095" y1="3.868" x2="4.047" y2="3.868"/>
	<g>
		<ellipse cx="9.183" cy="5.377" rx="0.661" ry="0.654"/>
		<ellipse fill="#F9F9FA" cx="9.101" cy="5.204" rx="0.175" ry="0.154"/>
	</g>
	<ellipse fill="#F9F9FA" cx="5.212" cy="5.435" rx="0.175" ry="0.154"/>
	<g>
		<ellipse cx="5.677" cy="5.377" rx="0.661" ry="0.653"/>
		<ellipse fill="#F9F9FA" cx="5.595" cy="5.204" rx="0.175" ry="0.154"/>
	</g>
</g>
</svg>
