<?xml version="1.0" encoding="utf-8"?>
<!-- Generator: Adobe Illustrator 16.0.0, SVG Export Plug-In . SVG Version: 6.00 Build 0)  -->
<!DOCTYPE svg PUBLIC "-//W3C//DTD SVG 1.1//EN" "http://www.w3.org/Graphics/SVG/1.1/DTD/svg11.dtd">
<svg version="1.1" id="Livello_1" xmlns="http://www.w3.org/2000/svg" xmlns:xlink="http://www.w3.org/1999/xlink" x="0px" y="0px"
	 width="48px" height="48px" viewBox="0 0 48 48" enable-background="new 0 0 48 48" xml:space="preserve">
<path fill="#F8F7F8" stroke="#000000" stroke-width="0.5" stroke-miterlimit="10" d="M37.96,15.65c-1.44,0.29-2.8,0.17-3.27-0.25
	c-1.07-0.52-1.051-2.12,0.1-3.7C36,10.02,38,9,39.26,9.41c1.271,0.41,1.311,2.11,0.101,3.78c-0.07,0.1-0.15,0.2-0.24,0.3
	c0.72,0.06,1.24,0.26,1.37,0.57C40.74,14.62,39.6,15.33,37.96,15.65z"/>
<path fill="#F8F7F8" stroke="#000000" stroke-width="0.5" stroke-miterlimit="10" d="M24.2,9.88c-7.81,0-14.14,6.26-14.14,14
	c0,7.73,6.33,14,14.14,14c7.81,0,14.14-6.27,14.14-14C38.34,16.14,32.01,9.88,24.2,9.88z M14.01,22.18
	c0.06-2.83,1.31-5.38,3.28-7.16h13.7c1.97,1.78,3.22,4.33,3.279,7.16H14.01z"/>
<path fill="#FFFFFF" stroke="#000000" stroke-width="0.5" stroke-miterlimit="10" d="M34.27,22.18H14.01
	c0.06-2.83,1.31-5.38,3.28-7.16h13.7C32.96,16.8,34.21,19.35,34.27,22.18z"/>
<path fill="none" stroke="#000000" stroke-width="0.5" stroke-miterlimit="10" d="M34.27,22.18H14.01c0.06-2.83,1.31-5.38,3.28-7.16
	h13.7C32.96,16.8,34.21,19.35,34.27,22.18z"/>
<line fill="none" stroke="#000000" stroke-width="0.5" stroke-miterlimit="10" x1="34.49" y1="22.18" x2="34.27" y2="22.18"/>
<line fill="none" stroke="#000000" stroke-width="0.5" stroke-miterlimit="10" x1="14.01" y1="22.18" x2="13.84" y2="22.18"/>
<line fill="none" stroke="#000000" stroke-width="0.5" stroke-miterlimit="10" x1="31.05" y1="15.02" x2="30.99" y2="15.02"/>
<line fill="none" stroke="#000000" stroke-width="0.5" stroke-miterlimit="10" x1="17.29" y1="15.02" x2="17.19" y2="15.02"/>
<g>
	<ellipse stroke="#FFFFFF" stroke-width="0.5" stroke-miterlimit="10" cx="20.633" cy="18.921" rx="1.354" ry="1.375"/>
	<ellipse stroke="#FFFFFF" stroke-width="0.5" stroke-miterlimit="10" cx="20.372" cy="18.421" rx="0.281" ry="0.229"/>
</g>
<g>
	<ellipse stroke="#FFFFFF" stroke-width="0.5" stroke-miterlimit="10" cx="27.716" cy="18.921" rx="1.354" ry="1.375"/>
	<ellipse stroke="#FFFFFF" stroke-width="0.5" stroke-miterlimit="10" cx="27.456" cy="18.421" rx="0.281" ry="0.229"/>
</g>
</svg>
