<?xml version="1.0" encoding="utf-8"?>
<!-- Generator: Adobe Illustrator 16.0.0, SVG Export Plug-In . SVG Version: 6.00 Build 0)  -->
<!DOCTYPE svg PUBLIC "-//W3C//DTD SVG 1.1//EN" "http://www.w3.org/Graphics/SVG/1.1/DTD/svg11.dtd">
<svg version="1.1" id="Livello_1" xmlns="http://www.w3.org/2000/svg" xmlns:xlink="http://www.w3.org/1999/xlink" x="0px" y="0px"
	 width="48px" height="48px" viewBox="0 0 48 48" enable-background="new 0 0 48 48" xml:space="preserve">
<path fill="#FFFFFF" stroke="#000000" stroke-miterlimit="10" d="M43.39,23.45c0,5.09-4.13,9.21-9.21,9.21h-8.02
	c0.03-0.13,0.04-0.26,0.04-0.4c0-1.29-0.99-2.34-2.2-2.34s-2.2,1.05-2.2,2.34c0,0.141,0.01,0.271,0.04,0.4h-8.02
	c-5.08,0-9.21-4.12-9.21-9.21c0-2.54,1.03-4.84,2.7-6.51s3.97-2.7,6.51-2.7h20.36C39.26,14.24,43.39,18.37,43.39,23.45z"/>
<g>
	<path fill-rule="evenodd" clip-rule="evenodd" d="M20.202,23.107c-0.086,2.467-2.097,4.344-4.554,4.249
		c-2.374-0.091-4.261-2.103-4.184-4.461c0.078-2.414,2.107-4.327,4.507-4.253C18.34,18.716,20.285,20.768,20.202,23.107z
		 M15.154,27.085c-0.245-0.152-0.493-0.273-0.702-0.444c-0.657-0.535-0.897-1.425-0.624-2.226c0.292-0.855,1.031-1.375,2.003-1.409
		c1.095-0.039,1.93-0.831,2.021-1.916c0.085-1.025-0.627-1.983-1.679-2.152c-0.423-0.068-0.888-0.03-1.31,0.064
		c-1.948,0.438-3.269,2.157-3.218,4.129C11.695,25.096,13.124,26.715,15.154,27.085z M15.81,25.986
		c-0.121,0.008-0.217,0.001-0.306,0.024c-0.07,0.019-0.13,0.074-0.195,0.114c0.06,0.045,0.118,0.128,0.179,0.131
		c0.304,0.014,0.61,0.018,0.913-0.002c0.071-0.005,0.182-0.111,0.192-0.183c0.027-0.185,0.017-0.378,0.001-0.565
		c-0.005-0.055-0.078-0.104-0.121-0.154c-0.042,0.049-0.112,0.095-0.122,0.15c-0.02,0.123,0,0.252-0.017,0.377
		c-0.006,0.044-0.081,0.119-0.107,0.113c-0.055-0.015-0.125-0.064-0.141-0.115c-0.024-0.077-0.008-0.166-0.008-0.251
		c0-0.457,0-0.915,0-1.414c-0.295,0.021-0.537,0.037-0.778,0.055c-0.002,0.052-0.004,0.104-0.006,0.156
		c0.169,0.035,0.338,0.069,0.515,0.106C15.81,25.01,15.81,25.48,15.81,25.986z"/>
	<path fill-rule="evenodd" clip-rule="evenodd" fill="#FFFFFF" d="M15.154,27.085c-2.03-0.37-3.458-1.989-3.509-3.953
		c-0.051-1.973,1.271-3.691,3.218-4.129c0.422-0.095,0.887-0.133,1.31-0.064c1.052,0.169,1.764,1.126,1.679,2.152
		c-0.091,1.085-0.926,1.877-2.021,1.916c-0.973,0.034-1.712,0.554-2.003,1.409c-0.273,0.801-0.033,1.69,0.624,2.226
		C14.661,26.812,14.909,26.933,15.154,27.085z M16.438,20.59c0-0.031,0-0.063,0-0.094c-0.008-1.052,0.142-0.912-0.987-0.921
		c-0.207-0.002-0.315,0.096-0.316,0.301c-0.002,0.472-0.003,0.944,0,1.417c0.001,0.2,0.102,0.313,0.312,0.312
		c0.22-0.001,0.44-0.002,0.661,0c0.241,0.002,0.339-0.119,0.332-0.354C16.433,21.031,16.438,20.811,16.438,20.59z"/>
	<path fill-rule="evenodd" clip-rule="evenodd" fill="#FFFFFF" d="M15.81,25.986c0-0.506,0-0.977,0-1.457
		c-0.177-0.037-0.346-0.071-0.515-0.106c0.002-0.053,0.004-0.104,0.006-0.156c0.241-0.018,0.482-0.034,0.778-0.055
		c0,0.499,0,0.957,0,1.414c0,0.085-0.017,0.174,0.008,0.251c0.016,0.051,0.086,0.101,0.141,0.115
		c0.026,0.006,0.102-0.069,0.107-0.113c0.017-0.125-0.003-0.254,0.017-0.377c0.009-0.056,0.079-0.102,0.122-0.15
		c0.043,0.051,0.116,0.1,0.121,0.154c0.016,0.188,0.025,0.381-0.001,0.565c-0.011,0.071-0.122,0.178-0.192,0.183
		c-0.303,0.02-0.609,0.016-0.913,0.002c-0.061-0.003-0.119-0.086-0.179-0.131c0.065-0.04,0.125-0.096,0.195-0.114
		C15.593,25.987,15.689,25.994,15.81,25.986z"/>
	<path fill-rule="evenodd" clip-rule="evenodd" d="M16.438,20.59c0,0.221-0.005,0.441,0.001,0.661
		c0.007,0.234-0.091,0.356-0.332,0.354c-0.22-0.002-0.44-0.002-0.661,0c-0.21,0.001-0.311-0.111-0.312-0.312
		c-0.003-0.472-0.003-0.944,0-1.417c0.001-0.206,0.109-0.303,0.316-0.301c1.129,0.009,0.979-0.131,0.987,0.921
		C16.438,20.527,16.438,20.559,16.438,20.59z M16.166,21.335c0-0.513,0-0.99,0-1.481c-0.259,0-0.503,0-0.742,0
		c0,0.509,0,0.995,0,1.481C15.681,21.335,15.909,21.335,16.166,21.335z"/>
	<path fill-rule="evenodd" clip-rule="evenodd" fill="#FFFFFF" d="M16.166,21.335c-0.257,0-0.485,0-0.742,0c0-0.486,0-0.972,0-1.481
		c0.239,0,0.483,0,0.742,0C16.166,20.345,16.166,20.823,16.166,21.335z"/>
</g>
<g>
	<path fill-rule="evenodd" clip-rule="evenodd" d="M36.827,23.107c-0.087,2.467-2.097,4.344-4.554,4.249
		c-2.373-0.091-4.261-2.103-4.184-4.461c0.078-2.414,2.106-4.327,4.506-4.253C34.965,18.716,36.91,20.768,36.827,23.107z
		 M31.779,27.085c-0.245-0.152-0.493-0.273-0.702-0.444c-0.657-0.535-0.897-1.425-0.624-2.225c0.291-0.856,1.031-1.376,2.004-1.41
		c1.094-0.039,1.93-0.831,2.02-1.916c0.086-1.025-0.627-1.983-1.678-2.152c-0.424-0.068-0.889-0.03-1.311,0.064
		c-1.947,0.438-3.27,2.157-3.219,4.129C28.32,25.096,29.748,26.715,31.779,27.085z M32.436,25.986
		c-0.121,0.008-0.218,0.001-0.307,0.024c-0.069,0.019-0.13,0.074-0.195,0.114c0.061,0.045,0.119,0.128,0.18,0.131
		c0.305,0.014,0.609,0.018,0.913-0.002c0.071-0.005,0.182-0.111,0.192-0.183c0.027-0.185,0.018-0.378,0.002-0.565
		c-0.006-0.055-0.078-0.104-0.121-0.154c-0.043,0.049-0.113,0.095-0.122,0.15c-0.021,0.123,0.001,0.252-0.017,0.377
		c-0.006,0.044-0.081,0.119-0.107,0.113c-0.055-0.015-0.125-0.064-0.141-0.115c-0.025-0.077-0.008-0.166-0.008-0.251
		c0-0.457,0-0.915,0-1.414c-0.296,0.021-0.537,0.038-0.778,0.055c-0.002,0.052-0.005,0.104-0.007,0.157
		c0.17,0.034,0.338,0.068,0.516,0.105C32.436,25.01,32.436,25.48,32.436,25.986z"/>
	<path fill-rule="evenodd" clip-rule="evenodd" fill="#FFFFFF" d="M31.779,27.085c-2.031-0.37-3.459-1.989-3.51-3.953
		c-0.051-1.973,1.271-3.691,3.219-4.129c0.422-0.095,0.887-0.133,1.311-0.064c1.051,0.169,1.764,1.126,1.678,2.152
		c-0.09,1.085-0.926,1.877-2.02,1.916c-0.973,0.034-1.713,0.554-2.004,1.41c-0.273,0.8-0.033,1.689,0.624,2.225
		C31.286,26.812,31.534,26.933,31.779,27.085z M33.063,20.59c0-0.031,0-0.063,0-0.094c-0.008-1.052,0.143-0.912-0.986-0.921
		c-0.207-0.002-0.316,0.096-0.316,0.301c-0.003,0.472-0.004,0.944,0,1.417c0.002,0.2,0.102,0.313,0.313,0.312
		c0.22-0.001,0.439-0.002,0.66,0c0.241,0.002,0.34-0.119,0.332-0.354C33.058,21.031,33.063,20.811,33.063,20.59z"/>
	<path fill-rule="evenodd" clip-rule="evenodd" fill="#FFFFFF" d="M32.436,25.986c0-0.506,0-0.977,0-1.457
		c-0.178-0.037-0.346-0.071-0.516-0.105c0.002-0.053,0.005-0.105,0.007-0.157c0.241-0.017,0.482-0.034,0.778-0.055
		c0,0.499,0,0.957,0,1.414c0,0.085-0.018,0.174,0.008,0.251c0.016,0.051,0.086,0.101,0.141,0.115
		c0.026,0.006,0.102-0.069,0.107-0.113c0.018-0.125-0.004-0.254,0.017-0.377c0.009-0.056,0.079-0.102,0.122-0.15
		c0.043,0.051,0.115,0.1,0.121,0.154c0.016,0.188,0.025,0.381-0.002,0.565c-0.011,0.071-0.121,0.178-0.192,0.183
		c-0.304,0.02-0.608,0.016-0.913,0.002c-0.061-0.003-0.119-0.086-0.18-0.131c0.065-0.04,0.126-0.096,0.195-0.114
		C32.218,25.987,32.314,25.994,32.436,25.986z"/>
	<path fill-rule="evenodd" clip-rule="evenodd" d="M33.063,20.59c0,0.221-0.005,0.441,0.002,0.661
		c0.008,0.234-0.091,0.356-0.332,0.354c-0.221-0.002-0.44-0.002-0.66,0c-0.211,0.001-0.311-0.111-0.313-0.312
		c-0.004-0.472-0.003-0.944,0-1.417c0-0.206,0.109-0.303,0.316-0.301c1.129,0.009,0.979-0.131,0.986,0.921
		C33.063,20.527,33.063,20.559,33.063,20.59z M32.791,21.335c0-0.513,0-0.99,0-1.481c-0.26,0-0.504,0-0.742,0
		c0,0.509,0,0.995,0,1.481C32.306,21.335,32.534,21.335,32.791,21.335z"/>
	<path fill-rule="evenodd" clip-rule="evenodd" fill="#FFFFFF" d="M32.791,21.335c-0.257,0-0.485,0-0.742,0c0-0.486,0-0.972,0-1.481
		c0.238,0,0.482,0,0.742,0C32.791,20.345,32.791,20.823,32.791,21.335z"/>
</g>
</svg>
