<?xml version="1.0" encoding="utf-8"?>
<!-- Generator: Adobe Illustrator 16.0.0, SVG Export Plug-In . SVG Version: 6.00 Build 0)  -->
<!DOCTYPE svg PUBLIC "-//W3C//DTD SVG 1.1//EN" "http://www.w3.org/Graphics/SVG/1.1/DTD/svg11.dtd">
<svg version="1.1" id="Livello_1" xmlns="http://www.w3.org/2000/svg" xmlns:xlink="http://www.w3.org/1999/xlink" x="0px" y="0px"
	 width="16px" height="16px" viewBox="0 0 16 16" enable-background="new 0 0 16 16" xml:space="preserve">
<path fill="#FFFFFF" stroke="#000000" stroke-miterlimit="10" d="M15.952,8c0,2.088-1.693,3.777-3.777,3.777H8.886
	c0.013-0.054,0.017-0.107,0.017-0.164c0-0.529-0.406-0.96-0.902-0.96s-0.902,0.431-0.902,0.96c0,0.057,0.004,0.11,0.017,0.164H3.825
	c-2.084,0-3.777-1.689-3.777-3.777c0-1.042,0.422-1.985,1.107-2.67c0.685-0.685,1.628-1.107,2.67-1.107h8.35
	C14.259,4.223,15.952,5.917,15.952,8z"/>
<g>
	<path fill-rule="evenodd" clip-rule="evenodd" d="M6.442,7.859c-0.035,1.012-0.86,1.781-1.867,1.742
		C3.602,9.564,2.827,8.74,2.858,7.772c0.032-0.99,0.864-1.775,1.849-1.744C5.679,6.058,6.477,6.9,6.442,7.859z M4.372,9.49
		C4.271,9.428,4.17,9.379,4.084,9.309c-0.27-0.22-0.367-0.584-0.256-0.913c0.12-0.351,0.423-0.564,0.821-0.578
		c0.449-0.016,0.792-0.341,0.829-0.786c0.035-0.42-0.257-0.813-0.688-0.882C4.616,6.121,4.426,6.137,4.253,6.176
		C3.454,6.355,2.912,7.06,2.933,7.87C2.953,8.675,3.539,9.339,4.372,9.49z M4.641,9.04C4.592,9.043,4.552,9.041,4.516,9.051
		C4.487,9.058,4.462,9.08,4.436,9.098C4.46,9.115,4.484,9.149,4.509,9.15c0.125,0.006,0.251,0.008,0.375,0
		c0.028-0.002,0.074-0.047,0.079-0.076c0.011-0.075,0.007-0.154,0-0.231C4.961,8.821,4.931,8.8,4.913,8.78
		C4.896,8.8,4.867,8.819,4.863,8.841C4.855,8.892,4.864,8.945,4.856,8.996C4.854,9.014,4.823,9.045,4.813,9.043
		C4.79,9.037,4.762,9.016,4.755,8.995c-0.01-0.031-0.003-0.068-0.003-0.103c0-0.188,0-0.375,0-0.58
		C4.631,8.321,4.531,8.328,4.433,8.334C4.432,8.356,4.431,8.377,4.43,8.399c0.069,0.014,0.139,0.028,0.211,0.043
		C4.641,8.64,4.641,8.833,4.641,9.04z"/>
	<path fill-rule="evenodd" clip-rule="evenodd" fill="#FFFFFF" d="M4.372,9.49C3.539,9.339,2.953,8.675,2.933,7.87
		c-0.021-0.81,0.521-1.514,1.32-1.694C4.426,6.137,4.616,6.121,4.79,6.149c0.432,0.069,0.724,0.462,0.688,0.882
		c-0.037,0.445-0.38,0.77-0.829,0.786C4.251,7.832,3.948,8.045,3.828,8.396C3.717,8.724,3.814,9.089,4.084,9.309
		C4.17,9.379,4.271,9.428,4.372,9.49z M4.898,6.827c0-0.013,0-0.025,0-0.039C4.896,6.356,4.957,6.414,4.494,6.411
		C4.409,6.41,4.364,6.45,4.364,6.534c-0.001,0.193-0.002,0.387,0,0.581c0.001,0.082,0.042,0.128,0.128,0.127
		c0.09,0,0.181-0.001,0.271,0c0.1,0,0.14-0.049,0.137-0.145C4.896,7.008,4.898,6.917,4.898,6.827z"/>
	<path fill-rule="evenodd" clip-rule="evenodd" fill="#FFFFFF" d="M4.641,9.04c0-0.208,0-0.4,0-0.598
		C4.568,8.427,4.499,8.413,4.43,8.399c0.001-0.021,0.002-0.043,0.003-0.064c0.099-0.007,0.198-0.014,0.319-0.022
		c0,0.205,0,0.393,0,0.58c0,0.035-0.007,0.071,0.003,0.103C4.762,9.016,4.79,9.037,4.813,9.043c0.011,0.002,0.042-0.029,0.044-0.047
		c0.008-0.051-0.001-0.104,0.007-0.155C4.867,8.819,4.896,8.8,4.913,8.78C4.931,8.8,4.961,8.821,4.963,8.843
		c0.007,0.077,0.011,0.156,0,0.231C4.958,9.104,4.912,9.148,4.884,9.15c-0.124,0.008-0.25,0.006-0.375,0
		C4.484,9.149,4.46,9.115,4.436,9.098c0.026-0.018,0.052-0.04,0.08-0.047C4.552,9.041,4.592,9.043,4.641,9.04z"/>
	<path fill-rule="evenodd" clip-rule="evenodd" d="M4.898,6.827c0,0.091-0.002,0.181,0.001,0.271
		c0.003,0.096-0.037,0.146-0.137,0.145c-0.09-0.001-0.181-0.001-0.271,0c-0.086,0-0.127-0.046-0.128-0.127
		c-0.002-0.194-0.001-0.388,0-0.581c0-0.084,0.045-0.125,0.13-0.124c0.463,0.003,0.401-0.054,0.404,0.377
		C4.898,6.801,4.898,6.814,4.898,6.827z M4.787,7.133c0-0.21,0-0.406,0-0.607c-0.106,0-0.206,0-0.305,0c0,0.208,0,0.408,0,0.607
		C4.588,7.133,4.682,7.133,4.787,7.133z"/>
	<path fill-rule="evenodd" clip-rule="evenodd" fill="#FFFFFF" d="M4.787,7.133c-0.105,0-0.199,0-0.305,0c0-0.199,0-0.399,0-0.607
		c0.099,0,0.198,0,0.305,0C4.787,6.727,4.787,6.922,4.787,7.133z"/>
</g>
<path fill-rule="evenodd" clip-rule="evenodd" d="M13.261,7.859c-0.035,1.012-0.86,1.781-1.868,1.742
	C10.42,9.564,9.646,8.74,9.677,7.772c0.032-0.99,0.864-1.775,1.849-1.744C12.497,6.058,13.295,6.9,13.261,7.859z M11.19,9.49
	c-0.101-0.063-0.202-0.111-0.288-0.182c-0.27-0.22-0.368-0.584-0.256-0.913c0.119-0.351,0.423-0.564,0.822-0.578
	c0.448-0.016,0.791-0.341,0.828-0.786c0.035-0.42-0.258-0.813-0.688-0.882c-0.174-0.028-0.364-0.013-0.537,0.026
	C10.272,6.355,9.73,7.06,9.751,7.87C9.771,8.675,10.357,9.339,11.19,9.49z M11.459,9.04c-0.049,0.003-0.089,0.001-0.125,0.011
	c-0.028,0.007-0.054,0.029-0.08,0.047c0.024,0.018,0.049,0.052,0.073,0.053c0.125,0.006,0.25,0.008,0.375,0
	c0.029-0.002,0.074-0.047,0.079-0.076c0.011-0.075,0.007-0.154,0-0.231C11.779,8.821,11.75,8.8,11.731,8.78
	c-0.018,0.02-0.046,0.039-0.05,0.062c-0.009,0.051,0,0.104-0.007,0.155c-0.002,0.018-0.033,0.049-0.044,0.047
	c-0.022-0.006-0.051-0.027-0.058-0.048c-0.011-0.031-0.003-0.068-0.003-0.103c0-0.188,0-0.375,0-0.58
	c-0.122,0.008-0.221,0.015-0.319,0.022c-0.001,0.021-0.002,0.043-0.003,0.065c0.069,0.014,0.139,0.028,0.211,0.043
	C11.459,8.64,11.459,8.833,11.459,9.04z"/>
<path fill-rule="evenodd" clip-rule="evenodd" fill="#FFFFFF" d="M11.19,9.49C10.357,9.339,9.771,8.675,9.751,7.87
	c-0.021-0.81,0.521-1.514,1.32-1.694c0.173-0.039,0.363-0.055,0.537-0.026c0.431,0.069,0.724,0.462,0.688,0.882
	c-0.037,0.445-0.38,0.77-0.828,0.786c-0.399,0.014-0.703,0.227-0.822,0.578c-0.112,0.328-0.014,0.693,0.256,0.913
	C10.988,9.379,11.09,9.428,11.19,9.49z M11.717,6.827c0-0.013,0-0.025,0-0.039c-0.003-0.432,0.059-0.374-0.404-0.377
	c-0.085-0.001-0.13,0.039-0.13,0.124c-0.002,0.193-0.002,0.387,0,0.581c0,0.082,0.041,0.128,0.128,0.127c0.09,0,0.181-0.001,0.271,0
	c0.099,0,0.14-0.049,0.137-0.145C11.715,7.008,11.717,6.917,11.717,6.827z"/>
<path fill-rule="evenodd" clip-rule="evenodd" fill="#FFFFFF" d="M11.459,9.04c0-0.208,0-0.4,0-0.598
	c-0.072-0.015-0.142-0.029-0.211-0.043c0.001-0.022,0.002-0.043,0.003-0.065c0.099-0.007,0.197-0.014,0.319-0.022
	c0,0.205,0,0.393,0,0.58c0,0.035-0.008,0.071,0.003,0.103c0.007,0.021,0.035,0.042,0.058,0.048c0.011,0.002,0.042-0.029,0.044-0.047
	c0.007-0.051-0.002-0.104,0.007-0.155c0.004-0.022,0.032-0.042,0.05-0.062c0.019,0.021,0.048,0.041,0.05,0.063
	c0.007,0.077,0.011,0.156,0,0.231c-0.005,0.029-0.05,0.074-0.079,0.076c-0.125,0.008-0.25,0.006-0.375,0
	c-0.024-0.001-0.049-0.035-0.073-0.053c0.026-0.018,0.052-0.04,0.08-0.047C11.37,9.041,11.41,9.043,11.459,9.04z"/>
<path fill-rule="evenodd" clip-rule="evenodd" d="M11.717,6.827c0,0.091-0.002,0.181,0.001,0.271
	c0.003,0.096-0.038,0.146-0.137,0.145c-0.09-0.001-0.181-0.001-0.271,0c-0.087,0-0.128-0.046-0.128-0.127
	c-0.002-0.194-0.002-0.388,0-0.581c0-0.084,0.045-0.125,0.13-0.124c0.463,0.003,0.401-0.054,0.404,0.377
	C11.717,6.801,11.717,6.814,11.717,6.827z M11.605,7.133c0-0.21,0-0.406,0-0.607c-0.106,0-0.207,0-0.305,0c0,0.208,0,0.408,0,0.607
	C11.406,7.133,11.5,7.133,11.605,7.133z"/>
<path fill-rule="evenodd" clip-rule="evenodd" fill="#FFFFFF" d="M11.605,7.133c-0.105,0-0.199,0-0.305,0c0-0.199,0-0.399,0-0.607
	c0.098,0,0.198,0,0.305,0C11.605,6.727,11.605,6.922,11.605,7.133z"/>
</svg>
